# xmcd CD database file
#
# Track frame offsets:
#	150
#	30521
#	70139
#	89182
#	123902
#	136015
#	161735
#
# Disc length: 2780 seconds
#
# Revision: 0
# Processed by: cddbd v1.5.2PL0 Copyright (c) Steve Scherf et al.
# Submitted via: CDex 1.70beta2
#
DISCID=590ada07
DTITLE=George Winston - Autumn
DYEAR=1980
DGENRE=New Age
TTITLE0=Colors-Dance
TTITLE1=Woods
TTITLE2=Longing-Love
TTITLE3=Road
TTITLE4=Moon
TTITLE5=Sea
TTITLE6=Stars C
EXTD=YEAR: 1980
EXTT0=
EXTT1=
EXTT2=
EXTT3=
EXTT4=
EXTT5=
EXTT6=
PLAYORDER=
